<svg xmlns="http://www.w3.org/2000/svg" viewBox="0 0 387.78 378.43"><defs><style>.cls-1{fill:#e0e0e0;}.cls-2{fill:#ebebeb;}.cls-11,.cls-3{fill:#fff;}.cls-4{fill:#f5f5f5;}.cls-5,.cls-8,.cls-9{fill:#407bff;}.cls-6,.cls-7{fill:#263238;}.cls-7,.cls-9{opacity:0.7;}.cls-8{opacity:0.6;}.cls-10{fill:#ffb573;}.cls-11{opacity:0.1;}.cls-12{opacity:0.2;}.cls-13{fill:#ed893e;}</style></defs><g id="Layer_2" data-name="Layer 2"><g id="Background_Complete" data-name="Background Complete"><path class="cls-1" d="M326.08,100.48H256.65l-9.59,9.59V323.68l9.59,9.59h69.43l9.59-9.59V110.07Z"/><polygon class="cls-2" points="247.06 323.68 256.65 333.27 278.18 333.27 268.59 323.68 247.06 323.68"/><polygon class="cls-2" points="247.06 110.07 256.65 100.48 278.18 100.48 268.59 110.07 247.06 110.07"/><path class="cls-2" d="M364.3,100.48H278.18l-9.59,9.59V323.68l9.59,9.59H364.3l9.59-9.59V110.07C370.14,106.33,368,104.23,364.3,100.48Z"/><polygon class="cls-3" points="279.4 328.79 273.07 322.46 273.07 111.29 279.4 104.96 363.08 104.96 369.41 111.29 369.41 322.46 363.08 328.79 279.4 328.79"/><rect class="cls-2" x="277.55" y="116.33" width="91.86" height="18.5"/><path class="cls-4" d="M364.22,303.79A.81.81,0,1,0,365,303,.8.8,0,0,0,364.22,303.79Z"/><path class="cls-3" d="M360.36,303.79a.81.81,0,1,0,.81-.81A.8.8,0,0,0,360.36,303.79Z"/><path class="cls-4" d="M356.51,303.79a.8.8,0,0,0,1.6,0,.8.8,0,1,0-1.6,0Z"/><rect class="cls-4" x="277.55" y="123.78" width="91.86" height="3.6"/><rect class="cls-1" x="273.07" y="116.33" width="4.48" height="18.5" transform="translate(550.62 251.15) rotate(180)"/><rect class="cls-2" x="277.55" y="136.61" width="91.86" height="18.5"/><path class="cls-4" d="M364.22,283.5a.81.81,0,1,0,.81-.81A.8.8,0,0,0,364.22,283.5Z"/><path class="cls-3" d="M360.36,283.5a.81.81,0,1,0,.81-.81A.8.8,0,0,0,360.36,283.5Z"/><path class="cls-3" d="M356.51,283.5a.8.8,0,0,0,1.6,0,.8.8,0,1,0-1.6,0Z"/><rect class="cls-4" x="277.55" y="144.07" width="91.86" height="3.6"/><rect class="cls-1" x="273.07" y="136.61" width="4.48" height="18.5" transform="translate(550.62 291.73) rotate(180)"/><rect class="cls-2" x="277.55" y="156.9" width="91.86" height="18.5"/><path class="cls-4" d="M364.22,263.21a.81.81,0,0,0,1.61,0,.81.81,0,0,0-1.61,0Z"/><path class="cls-4" d="M360.36,263.21a.81.81,0,0,0,1.61,0,.81.81,0,0,0-1.61,0Z"/><path class="cls-4" d="M356.51,263.21a.8.8,0,1,0,.8-.8A.8.8,0,0,0,356.51,263.21Z"/><rect class="cls-4" x="277.55" y="164.36" width="91.86" height="3.6"/><rect class="cls-1" x="273.07" y="156.9" width="4.48" height="18.5" transform="translate(550.62 332.31) rotate(180)"/><rect class="cls-2" x="277.55" y="177.19" width="91.86" height="18.5"/><path class="cls-3" d="M364.22,242.92a.81.81,0,1,0,.81-.8A.8.8,0,0,0,364.22,242.92Z"/><path class="cls-3" d="M360.36,242.92a.81.81,0,1,0,.81-.8A.8.8,0,0,0,360.36,242.92Z"/><path class="cls-4" d="M356.51,242.92a.8.8,0,1,0,.8-.8A.8.8,0,0,0,356.51,242.92Z"/><rect class="cls-4" x="277.55" y="184.64" width="91.86" height="3.6"/><rect class="cls-1" x="273.07" y="177.19" width="4.48" height="18.5" transform="translate(550.62 372.88) rotate(180)"/><rect class="cls-2" x="277.55" y="197.48" width="91.86" height="18.5"/><path class="cls-3" d="M364.22,222.63a.81.81,0,1,0,.81-.8A.8.8,0,0,0,364.22,222.63Z"/><path class="cls-3" d="M360.36,222.63a.81.81,0,1,0,.81-.8A.8.8,0,0,0,360.36,222.63Z"/><path class="cls-3" d="M356.51,222.63a.8.8,0,1,0,.8-.8A.8.8,0,0,0,356.51,222.63Z"/><rect class="cls-4" x="277.55" y="204.93" width="91.86" height="3.6"/><rect class="cls-1" x="273.07" y="197.48" width="4.48" height="18.5" transform="translate(550.62 413.46) rotate(180)"/><rect class="cls-2" x="277.55" y="217.77" width="91.86" height="18.5"/><path class="cls-4" d="M364.22,202.34a.81.81,0,1,0,.81-.8A.8.8,0,0,0,364.22,202.34Z"/><path class="cls-3" d="M360.36,202.34a.81.81,0,1,0,.81-.8A.8.8,0,0,0,360.36,202.34Z"/><path class="cls-4" d="M356.51,202.34a.8.8,0,1,0,.8-.8A.8.8,0,0,0,356.51,202.34Z"/><rect class="cls-4" x="277.55" y="225.22" width="91.86" height="3.6"/><rect class="cls-1" x="273.07" y="217.77" width="4.48" height="18.5" transform="translate(550.62 454.04) rotate(180)"/><rect class="cls-2" x="277.55" y="238.06" width="91.86" height="18.5"/><path class="cls-3" d="M364.22,182.05a.81.81,0,1,0,.81-.8A.8.8,0,0,0,364.22,182.05Z"/><path class="cls-3" d="M360.36,182.05a.81.81,0,1,0,.81-.8A.8.8,0,0,0,360.36,182.05Z"/><path class="cls-4" d="M356.51,182.05a.8.8,0,1,0,.8-.8A.8.8,0,0,0,356.51,182.05Z"/><rect class="cls-4" x="277.55" y="245.51" width="91.86" height="3.6"/><rect class="cls-1" x="273.07" y="238.06" width="4.48" height="18.5" transform="translate(550.62 494.62) rotate(180)"/><rect class="cls-2" x="277.55" y="258.35" width="91.86" height="18.5"/><path class="cls-3" d="M364.22,161.76a.81.81,0,1,0,.81-.8A.8.8,0,0,0,364.22,161.76Z"/><path class="cls-4" d="M360.36,161.76a.81.81,0,1,0,.81-.8A.8.8,0,0,0,360.36,161.76Z"/><path class="cls-3" d="M356.51,161.76a.8.8,0,1,0,.8-.8A.8.8,0,0,0,356.51,161.76Z"/><rect class="cls-4" x="277.55" y="265.8" width="91.86" height="3.6"/><rect class="cls-1" x="273.07" y="258.35" width="4.48" height="18.5" transform="translate(550.62 535.2) rotate(180)"/><rect class="cls-2" x="277.55" y="278.64" width="91.86" height="18.5"/><path class="cls-4" d="M364.22,141.47a.81.81,0,1,0,.81-.8A.8.8,0,0,0,364.22,141.47Z"/><path class="cls-3" d="M360.36,141.47a.81.81,0,1,0,.81-.8A.8.8,0,0,0,360.36,141.47Z"/><path class="cls-4" d="M356.51,141.47a.8.8,0,0,0,1.6,0,.8.8,0,0,0-1.6,0Z"/><rect class="cls-4" x="277.55" y="286.09" width="91.86" height="3.6"/><rect class="cls-1" x="273.07" y="278.64" width="4.48" height="18.5" transform="translate(550.62 575.78) rotate(180)"/><rect class="cls-2" x="277.55" y="298.93" width="91.86" height="18.5"/><path class="cls-4" d="M364.22,121.18a.81.81,0,1,0,.81-.8A.81.81,0,0,0,364.22,121.18Z"/><path class="cls-4" d="M360.36,121.18a.81.81,0,1,0,.81-.8A.81.81,0,0,0,360.36,121.18Z"/><path class="cls-3" d="M356.51,121.18a.8.8,0,1,0,.8-.8A.8.8,0,0,0,356.51,121.18Z"/><rect class="cls-4" x="277.55" y="306.38" width="91.86" height="3.6"/><rect class="cls-1" x="273.07" y="298.93" width="4.48" height="18.5" transform="translate(550.62 616.36) rotate(180)"/><path class="cls-1" d="M209.5,100.48H140.06c-3.74,3.75-5.84,5.85-9.59,9.59V323.68l9.59,9.59H209.5l9.59-9.59V110.07C215.34,106.33,213.24,104.23,209.5,100.48Z"/><polygon class="cls-2" points="130.47 323.68 140.06 333.27 161.6 333.27 152.01 323.68 130.47 323.68"/><polygon class="cls-2" points="130.47 110.07 140.06 100.48 161.6 100.48 152.01 110.07 130.47 110.07"/><path class="cls-2" d="M247.71,100.48H161.6L152,110.07V323.68l9.59,9.59h86.11l9.59-9.59V110.07Z"/><polygon class="cls-3" points="162.82 328.79 156.49 322.46 156.49 111.29 162.82 104.96 246.49 104.96 252.83 111.29 252.83 322.46 246.49 328.79 162.82 328.79"/><rect class="cls-2" x="160.96" y="116.33" width="91.86" height="18.5"/><path class="cls-4" d="M247.64,121.18a.8.8,0,1,1,.8.81A.8.8,0,0,1,247.64,121.18Z"/><path class="cls-3" d="M243.78,121.18a.8.8,0,1,1,.8.81A.8.8,0,0,1,243.78,121.18Z"/><path class="cls-4" d="M239.92,121.18a.81.81,0,1,1,.8.81A.8.8,0,0,1,239.92,121.18Z"/><rect class="cls-4" x="160.96" y="123.78" width="91.86" height="3.6"/><rect class="cls-1" x="156.49" y="116.33" width="4.48" height="18.5" transform="translate(317.45 251.15) rotate(180)"/><rect class="cls-2" x="160.96" y="136.61" width="91.86" height="18.5"/><path class="cls-4" d="M247.64,141.47a.8.8,0,1,1,.8.8A.8.8,0,0,1,247.64,141.47Z"/><path class="cls-3" d="M243.78,141.47a.8.8,0,1,1,.8.8A.8.8,0,0,1,243.78,141.47Z"/><path class="cls-3" d="M239.92,141.47a.81.81,0,1,1,.8.8A.8.8,0,0,1,239.92,141.47Z"/><rect class="cls-4" x="160.96" y="144.07" width="91.86" height="3.6"/><rect class="cls-1" x="156.49" y="136.61" width="4.48" height="18.5" transform="translate(317.45 291.73) rotate(180)"/><rect class="cls-2" x="160.96" y="156.9" width="91.86" height="18.5"/><path class="cls-4" d="M247.64,161.76a.8.8,0,1,1,.8.8A.8.8,0,0,1,247.64,161.76Z"/><path class="cls-4" d="M243.78,161.76a.8.8,0,1,1,.8.8A.8.8,0,0,1,243.78,161.76Z"/><path class="cls-4" d="M239.92,161.76a.81.81,0,1,1,.8.8A.8.8,0,0,1,239.92,161.76Z"/><rect class="cls-4" x="160.96" y="164.36" width="91.86" height="3.6"/><rect class="cls-1" x="156.49" y="156.9" width="4.48" height="18.5" transform="translate(317.45 332.31) rotate(180)"/><rect class="cls-2" x="160.96" y="177.19" width="91.86" height="18.5"/><path class="cls-3" d="M247.64,182.05a.8.8,0,1,1,.8.8A.8.8,0,0,1,247.64,182.05Z"/><path class="cls-3" d="M243.78,182.05a.8.8,0,1,1,.8.8A.8.8,0,0,1,243.78,182.05Z"/><path class="cls-4" d="M239.92,182.05a.81.81,0,1,1,.8.8A.8.8,0,0,1,239.92,182.05Z"/><rect class="cls-4" x="160.96" y="184.64" width="91.86" height="3.6"/><rect class="cls-1" x="156.49" y="177.19" width="4.48" height="18.5" transform="translate(317.45 372.88) rotate(180)"/><rect class="cls-2" x="160.96" y="197.48" width="91.86" height="18.5"/><path class="cls-3" d="M247.64,202.34a.8.8,0,1,1,.8.8A.8.8,0,0,1,247.64,202.34Z"/><path class="cls-3" d="M243.78,202.34a.8.8,0,1,1,.8.8A.8.8,0,0,1,243.78,202.34Z"/><path class="cls-3" d="M239.92,202.34a.81.81,0,1,1,.8.8A.8.8,0,0,1,239.92,202.34Z"/><rect class="cls-4" x="160.96" y="204.93" width="91.86" height="3.6"/><rect class="cls-1" x="156.49" y="197.48" width="4.48" height="18.5" transform="translate(317.45 413.46) rotate(180)"/><rect class="cls-2" x="160.96" y="217.77" width="91.86" height="18.5"/><path class="cls-4" d="M247.64,222.63a.8.8,0,1,1,.8.8A.8.8,0,0,1,247.64,222.63Z"/><path class="cls-3" d="M243.78,222.63a.8.8,0,1,1,.8.8A.8.8,0,0,1,243.78,222.63Z"/><path class="cls-4" d="M239.92,222.63a.81.81,0,1,1,.8.8A.8.8,0,0,1,239.92,222.63Z"/><rect class="cls-4" x="160.96" y="225.22" width="91.86" height="3.6"/><rect class="cls-1" x="156.49" y="217.77" width="4.48" height="18.5" transform="translate(317.45 454.04) rotate(180)"/><rect class="cls-2" x="160.96" y="238.06" width="91.86" height="18.5"/><path class="cls-3" d="M247.64,242.92a.8.8,0,1,1,.8.8A.8.8,0,0,1,247.64,242.92Z"/><path class="cls-3" d="M243.78,242.92a.8.8,0,1,1,.8.8A.8.8,0,0,1,243.78,242.92Z"/><path class="cls-4" d="M239.92,242.92a.81.81,0,1,1,.8.8A.8.8,0,0,1,239.92,242.92Z"/><rect class="cls-4" x="160.96" y="245.51" width="91.86" height="3.6"/><rect class="cls-1" x="156.49" y="238.06" width="4.48" height="18.5" transform="translate(317.45 494.62) rotate(180)"/><rect class="cls-2" x="160.96" y="258.35" width="91.86" height="18.5"/><path class="cls-3" d="M247.64,263.21a.8.8,0,1,1,.8.8A.8.8,0,0,1,247.64,263.21Z"/><path class="cls-4" d="M243.78,263.21a.8.8,0,1,1,.8.8A.8.8,0,0,1,243.78,263.21Z"/><path class="cls-3" d="M239.92,263.21a.81.81,0,0,1,1.61,0,.81.81,0,0,1-1.61,0Z"/><rect class="cls-4" x="160.96" y="265.8" width="91.86" height="3.6"/><rect class="cls-1" x="156.49" y="258.35" width="4.48" height="18.5" transform="translate(317.45 535.2) rotate(180)"/><rect class="cls-2" x="160.96" y="278.64" width="91.86" height="18.5"/><path class="cls-4" d="M247.64,283.5a.8.8,0,1,1,.8.8A.8.8,0,0,1,247.64,283.5Z"/><path class="cls-3" d="M243.78,283.5a.8.8,0,1,1,.8.8A.8.8,0,0,1,243.78,283.5Z"/><path class="cls-4" d="M239.92,283.5a.81.81,0,1,1,.8.8A.8.8,0,0,1,239.92,283.5Z"/><rect class="cls-4" x="160.96" y="286.09" width="91.86" height="3.6"/><rect class="cls-1" x="156.49" y="278.64" width="4.48" height="18.5" transform="translate(317.45 575.78) rotate(180)"/><rect class="cls-2" x="160.96" y="298.93" width="91.86" height="18.5"/><path class="cls-4" d="M247.64,303.79a.8.8,0,1,1,.8.8A.8.8,0,0,1,247.64,303.79Z"/><path class="cls-4" d="M243.78,303.79a.8.8,0,1,1,.8.8A.8.8,0,0,1,243.78,303.79Z"/><path class="cls-3" d="M239.92,303.79a.81.81,0,1,1,.8.8A.8.8,0,0,1,239.92,303.79Z"/><rect class="cls-4" x="160.96" y="306.38" width="91.86" height="3.6"/><rect class="cls-1" x="156.49" y="298.93" width="4.48" height="18.5" transform="translate(317.45 616.36) rotate(180)"/><path class="cls-1" d="M92.91,100.48H23.48l-9.59,9.59V323.68l9.59,9.59H92.91l9.59-9.59V110.07Z"/><polygon class="cls-2" points="13.89 323.68 23.48 333.27 45.01 333.27 35.42 323.68 13.89 323.68"/><polygon class="cls-2" points="13.89 110.07 23.48 100.48 45.01 100.48 35.42 110.07 13.89 110.07"/><path class="cls-2" d="M131.13,100.48H45l-9.59,9.59V323.68L45,333.27h86.12l9.59-9.59V110.07Z"/><polygon class="cls-3" points="46.23 328.79 39.9 322.46 39.9 111.29 46.23 104.96 129.91 104.96 136.24 111.29 136.24 322.46 129.91 328.79 46.23 328.79"/><rect class="cls-2" x="44.38" y="116.33" width="91.86" height="18.5"/><path class="cls-4" d="M131.05,303.79a.81.81,0,1,0,.81-.81A.8.8,0,0,0,131.05,303.79Z"/><path class="cls-3" d="M127.19,303.79A.81.81,0,1,0,128,303,.8.8,0,0,0,127.19,303.79Z"/><path class="cls-4" d="M123.34,303.79a.8.8,0,1,0,.8-.81A.8.8,0,0,0,123.34,303.79Z"/><rect class="cls-4" x="44.38" y="123.78" width="91.86" height="3.6"/><rect class="cls-1" x="39.9" y="116.33" width="4.48" height="18.5" transform="translate(84.28 251.15) rotate(180)"/><rect class="cls-2" x="44.38" y="136.61" width="91.86" height="18.5"/><path class="cls-4" d="M131.05,283.5a.81.81,0,1,0,.81-.81A.8.8,0,0,0,131.05,283.5Z"/><path class="cls-3" d="M127.19,283.5a.81.81,0,1,0,.81-.81A.8.8,0,0,0,127.19,283.5Z"/><path class="cls-3" d="M123.34,283.5a.8.8,0,1,0,.8-.81A.8.8,0,0,0,123.34,283.5Z"/><rect class="cls-4" x="44.38" y="144.07" width="91.86" height="3.6"/><rect class="cls-1" x="39.9" y="136.61" width="4.48" height="18.5" transform="translate(84.28 291.73) rotate(180)"/><rect class="cls-2" x="44.38" y="156.9" width="91.86" height="18.5"/><path class="cls-4" d="M131.05,263.21a.81.81,0,0,0,1.61,0,.81.81,0,0,0-1.61,0Z"/><path class="cls-4" d="M127.19,263.21a.81.81,0,0,0,1.61,0,.81.81,0,0,0-1.61,0Z"/><path class="cls-4" d="M123.34,263.21a.8.8,0,1,0,.8-.8A.8.8,0,0,0,123.34,263.21Z"/><rect class="cls-4" x="44.38" y="164.36" width="91.86" height="3.6"/><rect class="cls-1" x="39.9" y="156.9" width="4.48" height="18.5" transform="translate(84.28 332.31) rotate(180)"/><rect class="cls-2" x="44.38" y="177.19" width="91.86" height="18.5"/><path class="cls-3" d="M131.05,242.92a.81.81,0,1,0,.81-.8A.8.8,0,0,0,131.05,242.92Z"/><path class="cls-3" d="M127.19,242.92a.81.81,0,1,0,.81-.8A.8.8,0,0,0,127.19,242.92Z"/><path class="cls-4" d="M123.34,242.92a.8.8,0,1,0,.8-.8A.8.8,0,0,0,123.34,242.92Z"/><rect class="cls-4" x="44.38" y="184.64" width="91.86" height="3.6"/><rect class="cls-1" x="39.9" y="177.19" width="4.48" height="18.5" transform="translate(84.28 372.88) rotate(180)"/><rect class="cls-2" x="44.38" y="197.48" width="91.86" height="18.5"/><path class="cls-3" d="M131.05,222.63a.81.81,0,1,0,.81-.8A.8.8,0,0,0,131.05,222.63Z"/><path class="cls-3" d="M127.19,222.63a.81.81,0,1,0,.81-.8A.8.8,0,0,0,127.19,222.63Z"/><path class="cls-3" d="M123.34,222.63a.8.8,0,1,0,.8-.8A.8.8,0,0,0,123.34,222.63Z"/><rect class="cls-4" x="44.38" y="204.93" width="91.86" height="3.6"/><rect class="cls-1" x="39.9" y="197.48" width="4.48" height="18.5" transform="translate(84.28 413.46) rotate(180)"/><rect class="cls-2" x="44.38" y="217.77" width="91.86" height="18.5"/><path class="cls-4" d="M131.05,202.34a.81.81,0,1,0,.81-.8A.8.8,0,0,0,131.05,202.34Z"/><path class="cls-3" d="M127.19,202.34a.81.81,0,1,0,.81-.8A.8.8,0,0,0,127.19,202.34Z"/><path class="cls-4" d="M123.34,202.34a.8.8,0,1,0,.8-.8A.8.8,0,0,0,123.34,202.34Z"/><rect class="cls-4" x="44.38" y="225.22" width="91.86" height="3.6"/><rect class="cls-1" x="39.9" y="217.77" width="4.48" height="18.5" transform="translate(84.28 454.04) rotate(180)"/><rect class="cls-2" x="44.38" y="238.06" width="91.86" height="18.5"/><path class="cls-3" d="M131.05,182.05a.81.81,0,1,0,.81-.8A.8.8,0,0,0,131.05,182.05Z"/><path class="cls-3" d="M127.19,182.05a.81.81,0,1,0,.81-.8A.8.8,0,0,0,127.19,182.05Z"/><path class="cls-4" d="M123.34,182.05a.8.8,0,1,0,.8-.8A.8.8,0,0,0,123.34,182.05Z"/><rect class="cls-4" x="44.38" y="245.51" width="91.86" height="3.6"/><rect class="cls-1" x="39.9" y="238.06" width="4.48" height="18.5" transform="translate(84.28 494.62) rotate(180)"/><rect class="cls-2" x="44.38" y="258.35" width="91.86" height="18.5"/><path class="cls-3" d="M131.05,161.76a.81.81,0,1,0,.81-.8A.8.8,0,0,0,131.05,161.76Z"/><path class="cls-4" d="M127.19,161.76a.81.81,0,1,0,.81-.8A.8.8,0,0,0,127.19,161.76Z"/><path class="cls-3" d="M123.34,161.76a.8.8,0,1,0,.8-.8A.8.8,0,0,0,123.34,161.76Z"/><rect class="cls-4" x="44.38" y="265.8" width="91.86" height="3.6"/><rect class="cls-1" x="39.9" y="258.35" width="4.48" height="18.5" transform="translate(84.28 535.2) rotate(180)"/><rect class="cls-2" x="44.38" y="278.64" width="91.86" height="18.5"/><path class="cls-4" d="M131.05,141.47a.81.81,0,1,0,.81-.8A.8.8,0,0,0,131.05,141.47Z"/><path class="cls-3" d="M127.19,141.47a.81.81,0,1,0,.81-.8A.8.8,0,0,0,127.19,141.47Z"/><path class="cls-4" d="M123.34,141.47a.8.8,0,1,0,.8-.8A.8.8,0,0,0,123.34,141.47Z"/><rect class="cls-4" x="44.38" y="286.09" width="91.86" height="3.6"/><rect class="cls-1" x="39.9" y="278.64" width="4.48" height="18.5" transform="translate(84.28 575.78) rotate(180)"/><rect class="cls-2" x="44.38" y="298.93" width="91.86" height="18.5"/><path class="cls-4" d="M131.05,121.18a.81.81,0,1,0,.81-.8A.81.81,0,0,0,131.05,121.18Z"/><path class="cls-4" d="M127.19,121.18a.81.81,0,1,0,.81-.8A.81.81,0,0,0,127.19,121.18Z"/><path class="cls-3" d="M123.34,121.18a.8.8,0,1,0,.8-.8A.8.8,0,0,0,123.34,121.18Z"/><rect class="cls-4" x="44.38" y="306.38" width="91.86" height="3.6"/><rect class="cls-1" x="39.9" y="298.93" width="4.48" height="18.5" transform="translate(84.28 616.36) rotate(180)"/><path class="cls-4" d="M126.72,46.05a14.84,14.84,0,0,0-14.84-14.72,14.64,14.64,0,0,0-5.55,1.08,17.93,17.93,0,0,0-33.62,4,15.43,15.43,0,0,0,1,30.83h49.11a10.94,10.94,0,0,0,3.9-21.16Z"/><path class="cls-4" d="M366.16,31.38a19.63,19.63,0,0,0-27-18.06,23.73,23.73,0,0,0-44.49,5.25A20.42,20.42,0,0,0,296,59.37h65a14.47,14.47,0,0,0,5.16-28Z"/></g><g id="Shadow"><ellipse id="_Path_" data-name="&lt;Path&gt;" class="cls-4" cx="193.89" cy="367.11" rx="193.89" ry="11.32"/></g><g id="Server"><path class="cls-5" d="M30.41,352.34v-1.52H21.46a.76.76,0,0,0-.76.76h0a.76.76,0,0,0,.76.76Z"/><path class="cls-5" d="M30.41,358.84v-1.51H21.46a.75.75,0,0,0-.76.75h0a.76.76,0,0,0,.76.76Z"/><path class="cls-6" d="M27.19,347.11h0a1.26,1.26,0,0,0-1.26,1.27V361.6a1.26,1.26,0,0,0,1.26,1.26h0a1.26,1.26,0,0,0,1.26-1.26V348.38A1.26,1.26,0,0,0,27.19,347.11Z"/><path class="cls-6" d="M30.77,349H27.19V361h3.58a6,6,0,0,0,6-6h0A6,6,0,0,0,30.77,349Z"/><path class="cls-6" d="M59,363.23a64.42,64.42,0,0,1-7.72-.61l-4.41-.52c-.7,0-1.4.08-2.12.15-1,.1-2,.27-3,.43a31.09,31.09,0,0,1-5.81.54,3,3,0,0,1-1.19-.24,1.36,1.36,0,0,1-.81-1.22,1.38,1.38,0,0,1,.77-1.14,2.91,2.91,0,0,1,1.11-.27,33.31,33.31,0,0,1,6.64.33l4.5.54c1.82-.08,3.57,0,5.29,0a64.9,64.9,0,0,0,6.8-.09c2-.16,3.43-.84,3.51-1.13-.43-.53-1.54-.69-3.81-1-1.68-.22-3.82-.28-6.09-.34-1.79-.05-3.63-.09-5.52-.22-3.78-.25-8.64-.85-12.77-3.27a.43.43,0,1,1,.44-.75c4,2.32,8.71,2.9,12.38,3.15,1.88.12,3.72.17,5.5.22,2.28.06,4.44.12,6.17.34a23.4,23.4,0,0,1,3,.48l-.11-.15c-.33-.42-.67-.86-1-1.33a6.3,6.3,0,0,1-.95-2,2.72,2.72,0,0,1,.49-2.37,3.58,3.58,0,0,1,2.37-1,25,25,0,0,1,6.24.39.44.44,0,0,1,.37.49.43.43,0,0,1-.5.37,24.34,24.34,0,0,0-6-.38,2.78,2.78,0,0,0-1.79.7,1.88,1.88,0,0,0-.31,1.62,5.45,5.45,0,0,0,.84,1.75c.28.43.6.86.92,1.26l.6.8.1.14a3.38,3.38,0,0,1,.93,2.32c-.28,1.93-3,2-4.3,2Zm-4.08-1.08a42.88,42.88,0,0,0,4.68.2c1.12,0,3.34-.06,3.51-1.25a1.11,1.11,0,0,0,0-.4c-.75.78-2.71,1.21-4,1.31S56.28,362.15,54.93,362.15Zm-17.54-1q-.77,0-1.53.06a2.13,2.13,0,0,0-.78.18.53.53,0,0,0-.31.39.54.54,0,0,0,.32.41,2.28,2.28,0,0,0,.84.14,29.68,29.68,0,0,0,5.64-.53l1.28-.19-.53-.07A42.55,42.55,0,0,0,37.39,361.16Z"/><path d="M164,121.89H74.21l-10,10V354.61l10,10H164l10-10V131.89Z"/><polygon class="cls-5" points="48.05 141.28 46.03 144.03 40.89 136.69 44.74 151.08 46.77 148.32 51.9 155.66 48.05 141.28"/><polygon class="cls-5" points="124.95 93.07 121.91 94.64 120.58 85.78 117.62 100.37 120.66 98.81 121.99 107.67 124.95 93.07"/><polygon class="cls-5" points="150.53 97.07 145.92 96 152.46 85.42 136.22 98.22 140.84 99.29 134.29 109.86 150.53 97.07"/><polygon class="cls-7" points="64.21 354.61 74.21 364.61 114.06 364.61 104.06 354.61 64.21 354.61"/><polygon class="cls-7" points="64.21 131.89 74.21 121.89 114.06 121.89 104.06 131.89 64.21 131.89"/><path class="cls-6" d="M203.85,121.89H114.06l-10,10V354.61l10,10h89.79c3.9-3.91,6.09-6.1,10-10V131.89Z"/><polygon class="cls-8" points="115.33 359.94 108.73 353.33 108.73 133.16 115.33 126.56 202.57 126.56 209.18 133.16 209.18 353.33 202.57 359.94 115.33 359.94"/><rect class="cls-6" x="113.4" y="138.41" width="95.78" height="19.29"/><path class="cls-5" d="M203.77,143.47a.84.84,0,1,1,.84.84A.84.84,0,0,1,203.77,143.47Z"/><path class="cls-3" d="M199.75,143.47a.84.84,0,1,1,.83.84A.84.84,0,0,1,199.75,143.47Z"/><path class="cls-5" d="M195.72,143.47a.84.84,0,1,1,.84.84A.85.85,0,0,1,195.72,143.47Z"/><rect class="cls-5" x="113.4" y="146.18" width="95.78" height="3.75"/><rect x="108.73" y="138.41" width="4.67" height="19.29" transform="translate(222.13 296.1) rotate(180)"/><rect class="cls-6" x="113.4" y="159.56" width="95.78" height="19.29"/><circle class="cls-5" cx="204.61" cy="164.63" r="0.84"/><circle class="cls-3" cx="200.58" cy="164.63" r="0.84"/><circle class="cls-3" cx="196.56" cy="164.63" r="0.84"/><rect class="cls-5" x="113.4" y="167.33" width="95.78" height="3.75"/><rect x="108.73" y="159.56" width="4.67" height="19.29" transform="translate(222.13 338.41) rotate(180)"/><rect class="cls-6" x="113.4" y="180.72" width="95.78" height="19.29"/><circle class="cls-5" cx="204.61" cy="185.78" r="0.84"/><circle class="cls-5" cx="200.58" cy="185.78" r="0.84"/><circle class="cls-5" cx="196.56" cy="185.78" r="0.84"/><rect class="cls-5" x="113.4" y="188.49" width="95.78" height="3.75"/><rect x="108.73" y="180.72" width="4.67" height="19.29" transform="translate(222.13 380.72) rotate(180)"/><rect class="cls-6" x="113.4" y="201.87" width="95.78" height="19.29"/><circle class="cls-3" cx="204.61" cy="206.94" r="0.84"/><circle class="cls-3" cx="200.58" cy="206.94" r="0.84"/><circle class="cls-5" cx="196.56" cy="206.94" r="0.84"/><rect class="cls-5" x="113.4" y="209.64" width="95.78" height="3.75"/><rect x="108.73" y="201.87" width="4.67" height="19.29" transform="translate(222.13 423.03) rotate(180)"/><rect class="cls-6" x="113.4" y="223.03" width="95.78" height="19.29"/><path class="cls-3" d="M203.77,228.09a.84.84,0,1,1,.84.84A.84.84,0,0,1,203.77,228.09Z"/><path class="cls-3" d="M199.75,228.09a.84.84,0,1,1,.83.84A.84.84,0,0,1,199.75,228.09Z"/><path class="cls-3" d="M195.72,228.09a.84.84,0,1,1,.84.84A.85.85,0,0,1,195.72,228.09Z"/><rect class="cls-5" x="113.4" y="230.8" width="95.78" height="3.75"/><rect x="108.73" y="223.03" width="4.67" height="19.29" transform="translate(222.13 465.34) rotate(180)"/><rect class="cls-6" x="113.4" y="244.18" width="95.78" height="19.29"/><path class="cls-5" d="M203.77,249.25a.84.84,0,1,1,.84.83A.83.83,0,0,1,203.77,249.25Z"/><path class="cls-3" d="M199.75,249.25a.84.84,0,1,1,.83.83A.83.83,0,0,1,199.75,249.25Z"/><path class="cls-5" d="M195.72,249.25a.84.84,0,1,1,.84.83A.84.84,0,0,1,195.72,249.25Z"/><rect class="cls-5" x="113.4" y="251.95" width="95.78" height="3.75"/><rect x="108.73" y="244.18" width="4.67" height="19.29" transform="translate(222.13 507.65) rotate(180)"/><rect class="cls-6" x="113.4" y="265.34" width="95.78" height="19.29"/><circle class="cls-3" cx="204.61" cy="270.4" r="0.84"/><circle class="cls-3" cx="200.58" cy="270.4" r="0.84"/><circle class="cls-5" cx="196.56" cy="270.4" r="0.84"/><rect class="cls-5" x="113.4" y="273.11" width="95.78" height="3.75"/><rect x="108.73" y="265.34" width="4.67" height="19.29" transform="translate(222.13 549.96) rotate(180)"/><rect class="cls-6" x="113.4" y="286.49" width="95.78" height="19.29"/><circle class="cls-3" cx="204.61" cy="291.56" r="0.84"/><circle class="cls-5" cx="200.58" cy="291.56" r="0.84"/><circle class="cls-3" cx="196.56" cy="291.56" r="0.84"/><rect class="cls-5" x="113.4" y="294.26" width="95.78" height="3.75"/><rect x="108.73" y="286.49" width="4.67" height="19.29" transform="translate(222.13 592.27) rotate(180)"/><rect class="cls-6" x="113.4" y="307.65" width="95.78" height="19.29"/><circle class="cls-5" cx="204.61" cy="312.71" r="0.84"/><circle class="cls-3" cx="200.58" cy="312.71" r="0.84"/><circle class="cls-5" cx="196.56" cy="312.71" r="0.84"/><rect class="cls-5" x="113.4" y="315.41" width="95.78" height="3.75"/><rect x="108.73" y="307.65" width="4.67" height="19.29" transform="translate(222.13 634.58) rotate(180)"/><rect class="cls-6" x="113.4" y="328.8" width="95.78" height="19.29"/><circle class="cls-5" cx="204.61" cy="333.87" r="0.84"/><circle class="cls-5" cx="200.58" cy="333.87" r="0.84"/><circle class="cls-3" cx="196.56" cy="333.87" r="0.84"/><rect class="cls-5" x="113.4" y="336.57" width="95.78" height="3.75"/><rect x="108.73" y="328.8" width="4.67" height="19.29" transform="translate(222.13 676.89) rotate(180)"/><polygon class="cls-9" points="115.33 359.94 108.73 353.33 108.73 133.16 115.33 126.56 167.01 126.56 173.61 133.16 173.61 353.33 167.01 359.94 115.33 359.94"/><polygon class="cls-5" points="167.01 359.94 173.61 353.33 173.61 133.16 167.01 126.56 169.59 126.56 175.26 132.23 175.26 354.27 169.59 359.94 167.01 359.94 167.01 359.94"/></g><g id="Character"><path class="cls-10" d="M302.07,130.58c2.18,4.26,4.1,8.49,5.88,12.92.88,2.2,1.72,4.44,2.48,6.75a53.68,53.68,0,0,1,2,7.32l.1.49.05.27.05.37c0,.25.07.51.09.74l0,.66a17.11,17.11,0,0,1-.1,2.33,35.26,35.26,0,0,1-.73,3.95,66.55,66.55,0,0,1-2.2,7,101.18,101.18,0,0,1-5.94,13,2.75,2.75,0,0,1-5.08-1.95l0-.06c1-4.42,2.11-8.9,3-13.26.46-2.18.83-4.36,1.09-6.42a23.74,23.74,0,0,0,.19-2.91,7.39,7.39,0,0,0-.06-1.13l0-.2,0-.12-.06-.21-.1-.35c-.54-1.83-1.31-3.87-2.13-5.9s-1.72-4.07-2.65-6.11c-1.84-4.08-3.78-8.24-5.68-12.27l0-.06a5.5,5.5,0,0,1,9.88-4.85Z"/><path class="cls-10" d="M297.21,185.76l3.42-5,3.39-1c1.56,1.9,1.1,4.83.65,6.51h0l-1,6.26a2.69,2.69,0,0,1-2.31,2.25l-2.22.31a2.91,2.91,0,0,1-3.31-2.64l-.09-1.08A8.67,8.67,0,0,1,297.21,185.76Z"/><path class="cls-6" d="M291.65,199.27a5,5,0,0,0,1.19-3.41l16.82-7.81.13.12a5,5,0,0,0,7.1-.61,4.76,4.76,0,0,0,.87-1.48l-3.65.49a1.71,1.71,0,0,1-1.94-1.55l-.11-1.26a1.72,1.72,0,0,1,1.65-1.86l3.68-.13a4.93,4.93,0,0,0-1.1-1.32,5,5,0,0,0-8.29,4l-16.83,7.81-.13-.12a5,5,0,0,0-8,2.1l3.66-.5a1.72,1.72,0,0,1,1.94,1.55l.1,1.26a1.7,1.7,0,0,1-1.64,1.86l-3.69.14a4.9,4.9,0,0,0,1.11,1.31A5,5,0,0,0,291.65,199.27Z"/><path class="cls-11" d="M292.5,193.84h0a1,1,0,0,1,.49-1.34l13.46-6.25a1,1,0,0,1,1.35.49h0a1,1,0,0,1-.49,1.35l-13.47,6.24A1,1,0,0,1,292.5,193.84Z"/><path class="cls-6" d="M290.22,120.15c6,1.33,9,4.41,14.8,14.1-3.3,4.89-11.38,9.12-11.38,9.12l-3.49-4c-4.38-8.13.07-19.2.07-19.2"/><path class="cls-12" d="M288.23,131.22a17.5,17.5,0,0,0,1.92,8.13l3.49,4s1.27-.67,3-1.78C293.8,135.89,291.57,133,288.23,131.22Z"/><path class="cls-10" d="M262.44,129.46l-.11.63-.1.47-.21.89c-.16.58-.34,1.13-.53,1.68a27.8,27.8,0,0,1-1.37,3.17,24.21,24.21,0,0,1-4,5.64,23.42,23.42,0,0,1-5.5,4.27,25.28,25.28,0,0,1-6.31,2.49l-.35.09a4.84,4.84,0,0,1-5.88-3.52,4.51,4.51,0,0,1-.12-.72,20.76,20.76,0,0,1,.35-6,37.84,37.84,0,0,1,1.47-5.19,60.19,60.19,0,0,1,4.33-9.11,96.89,96.89,0,0,1,5.32-8.16c1.93-2.6,3.87-5.1,6.08-7.54a2.73,2.73,0,0,1,4.39,3.21l0,.07c-1.51,2.59-3.05,5.29-4.44,8s-2.74,5.43-3.92,8.17a58.69,58.69,0,0,0-2.94,8.17,18.47,18.47,0,0,0-.75,7.22l-6.35-4.15a18.4,18.4,0,0,0,3.69-1.93,15.59,15.59,0,0,0,2.93-2.68,16.78,16.78,0,0,0,2.2-3.34,14.54,14.54,0,0,0,.81-1.86c.12-.31.21-.63.31-.93l.13-.44.05-.19s0-.15,0,0a5.5,5.5,0,1,1,10.87,1.68Z"/><path class="cls-6" d="M265,128.71c.63-3.77-2-8.28-2-8.28-6,.3-11.71,1.75-17.23,13,1.33,6.3,9.67,10.74,9.67,10.74l5.9-7.64S264.35,132.47,265,128.71Z"/><path class="cls-10" d="M257.12,105.75l1.66-1.8a6.65,6.65,0,0,1,2.61-1.72l1.58-.56a3.07,3.07,0,0,1,4,2.31l.39,2.08a3.07,3.07,0,0,1-2.15,3.52l-2.43.71a6.89,6.89,0,0,1-8.54,2.65A10.55,10.55,0,0,1,257.12,105.75Z"/><path class="cls-10" d="M300.72,349H292.4s.4,6.1.37,9.71l7.34.87C299.48,355.54,300.72,349,300.72,349Z"/><path class="cls-5" d="M264.06,177.81s14.93,63.26,19.59,89c4.89,27,8.22,81.17,8.21,83.15,2.68-.52,7-.65,9.15,0,0,0,10.28-63.7,1-87.35-3.53-44.84,1-70.2-8-84.78Z"/><path class="cls-12" d="M283.07,197.42c-2.44-10-10.72-9-16.11-7.18,3.36,14.45,8.93,38.78,13,58.08C285.74,234.46,286.37,210.88,283.07,197.42Z"/><path class="cls-10" d="M247.73,347.92c-.75,9.66-8.6,20.07-8.6,20.07l12.11-3.11,5.1-7.58a35.77,35.77,0,0,1,1.13-8.55Z"/><path class="cls-5" d="M251.91,177.81s2.11,67.31,1.56,87c-.77,27.27-6.49,85.15-6.49,85.15,4.34-.45,8.09-.58,10.49,0,0,0,18-46.85,15.89-84.89,4.5-35.26,19.66-67.63,10.29-87.24Z"/><path class="cls-10" d="M284,101.83c-1.17,5.11-2.5,14.46.95,17.86a27.33,27.33,0,0,1-12.66,10.39c-6.68-4.28-3.2-10.39-3.2-10.39,5.74-1.36,5.74-5.58,4.89-9.54Z"/><path class="cls-5" d="M285,114.44s-11.6-1.57-17.31,3.16a5.08,5.08,0,0,1-1.38,3.15,57,57,0,0,0,18.93.93C286.71,119.09,285,114.44,285,114.44Z"/><path class="cls-6" d="M253.11,131.68c.62,16-2.9,40.32-1.2,46.13,17.16,1.74,30.57,1.44,42.11,0,2-6.33-2.76-25.14,2.71-47.5a8.24,8.24,0,0,0-7.15-10.26c-1.48-.15-3.06-.28-4.68-.36a111.82,111.82,0,0,0-15.86,0c-2,.19-4.12.45-6.09.74C257.38,121.24,252.9,126.07,253.11,131.68Z"/><path class="cls-6" d="M265.13,93.26c-.07.69-.49,1.23-.94,1.21s-.76-.62-.69-1.31.48-1.24.93-1.21S265.19,92.56,265.13,93.26Z"/><path class="cls-6" d="M264.62,92l-1.6-.58S263.74,92.77,264.62,92Z"/><path class="cls-6" d="M264.23,88.69a.4.4,0,0,1-.24-.17.43.43,0,0,1,.14-.57,4.06,4.06,0,0,1,3.7-.44.4.4,0,0,1,.18.54.41.41,0,0,1-.54.21,3.19,3.19,0,0,0-2.92.38A.4.4,0,0,1,264.23,88.69Z"/><path class="cls-13" d="M265,95.17a19.65,19.65,0,0,1-2.87,4.29,2.9,2.9,0,0,0,2.41.61Z"/><path class="cls-10" d="M288.62,91.82c-1.32,8.51-1.7,12.13-6.38,16.25-7,6.2-17.07,3.06-18.29-5.59-1.09-7.78,1.25-20.38,9.84-23.27A11.23,11.23,0,0,1,288.62,91.82Z"/><path class="cls-6" d="M267.41,82.25c-1.71,3.37,1.66,9.62,3.92,12.19-4,4.32-8,11.79-2.73,16.27,4.85,4.08,30.92,4,25.85-4.74,4.47-5.5-3-6.28.58-17,2.59-7.77-2.28-9.93-6.65-9.19C283.4,73.52,271,75.24,267.41,82.25Z"/><path class="cls-1" d="M269.32,85.78s8.06,6.6,17.34,7.68c5,.58,7.5.52,7.73-.24s.66-3.33.66-3.33Z"/><path class="cls-5" d="M262.48,84.05c2.44,1.93,20.87,7.21,33.31,6,.12-.75-.28-.84-.28-.84s2.86-9.59-3.71-13.19c-3.1-5.06-12.46-4.76-16.6-3.33l-.59.74s-8.11,1.89-8.23,8.61C263.18,82.46,259.79,81.93,262.48,84.05Z"/><path class="cls-12" d="M274.61,73.48l.59-.74a17.1,17.1,0,0,1,12,4C284.08,74.88,278.89,73.12,274.61,73.48Z"/><path class="cls-10" d="M270.1,91.73c-1.76-.23-3.44,2.34-4.05,4.19-.67,2,.06,4,1.9,3.29a6.57,6.57,0,0,0,3.41-3.14C272.34,94.22,271.84,92,270.1,91.73Z"/><path class="cls-6" d="M295.3,353.08c5.11-.9,5,1.73,5.34,4.56a8.14,8.14,0,0,1-.84,5c-1.8,3.17-.26,7.85-6,7.85s-6.25-1.33-4.7-4.16a32.2,32.2,0,0,0,3-9.09C292.48,355.6,293,353.48,295.3,353.08Z"/><path class="cls-6" d="M300.31,359.12c0,3.44.06,11.37.06,11.37l-.91,0s-.78-8.45-1.27-10.73Z"/><path class="cls-6" d="M257,354.2a6.16,6.16,0,0,1,.46,2.88c-.2,3.63-1,13.24-1,13.24h-.83a84,84,0,0,0-.08-8.85c-.31-2.39-1.49,1.83-3.15,4.22s-4.82,4.55-10.22,4.72c-6.32.2-8.87-.07-7-1.65s6.13-2.61,6.13-2.61a17.15,17.15,0,0,0,7.94-7.15,15,15,0,0,1,6.61-5.88A1.64,1.64,0,0,1,257,354.2Z"/></g><g id="_500_Internal_Server_Error" data-name="500 Internal Server Error"><path class="cls-5" d="M40.61,20.37h13v4.36H44.8l-.47,2.95A9.57,9.57,0,0,1,46.14,27a7.64,7.64,0,0,1,1.76-.22,6.62,6.62,0,0,1,4.8,1.79,6,6,0,0,1,1.84,4.5,7.62,7.62,0,0,1-.95,3.66,6.46,6.46,0,0,1-2.69,2.69,9.48,9.48,0,0,1-4.45.92A12.91,12.91,0,0,1,43.12,40a6.63,6.63,0,0,1-3.94-2.75,8.86,8.86,0,0,1-1-2.31l5.53-.61a3.39,3.39,0,0,0,.94,2,2.49,2.49,0,0,0,1.76.69,2.38,2.38,0,0,0,1.89-.86A3.92,3.92,0,0,0,49,33.6,3.7,3.7,0,0,0,48.28,31a2.57,2.57,0,0,0-2-.82,3.22,3.22,0,0,0-1.53.39,4.5,4.5,0,0,0-1.21,1L38.88,31Z"/><path class="cls-5" d="M56.74,30.13q0-5.61,2-7.86T64.91,20a9.43,9.43,0,0,1,3.27.49,6,6,0,0,1,2.08,1.28,6.59,6.59,0,0,1,1.26,1.65,8.68,8.68,0,0,1,.75,2,18.73,18.73,0,0,1,.55,4.59q0,5.36-1.81,7.84c-1.21,1.66-3.29,2.48-6.24,2.48a8.74,8.74,0,0,1-4-.79,6.49,6.49,0,0,1-2.51-2.32,9.05,9.05,0,0,1-1.11-3A20.67,20.67,0,0,1,56.74,30.13Zm5.42,0a13.21,13.21,0,0,0,.67,5.14,2.08,2.08,0,0,0,1.92,1.37,2,2,0,0,0,1.45-.58,3.77,3.77,0,0,0,.9-1.85,19.61,19.61,0,0,0,.28-3.93A13.81,13.81,0,0,0,66.72,25a2.13,2.13,0,0,0-2-1.35,2,2,0,0,0-2,1.38A14.15,14.15,0,0,0,62.16,30.14Z"/><path class="cls-5" d="M75.08,30.13q0-5.61,2-7.86T83.25,20a9.33,9.33,0,0,1,3.26.49,5.93,5.93,0,0,1,2.08,1.28,6.64,6.64,0,0,1,1.27,1.65,8.68,8.68,0,0,1,.75,2,19.23,19.23,0,0,1,.55,4.59c0,3.57-.61,6.18-1.81,7.84s-3.29,2.48-6.25,2.48a8.72,8.72,0,0,1-4-.79,6.49,6.49,0,0,1-2.51-2.32,8.84,8.84,0,0,1-1.11-3A20.67,20.67,0,0,1,75.08,30.13Zm5.42,0a13.46,13.46,0,0,0,.66,5.14,2.1,2.1,0,0,0,1.93,1.37,2,2,0,0,0,1.44-.58,3.61,3.61,0,0,0,.9-1.85,18.73,18.73,0,0,0,.29-3.93A13.81,13.81,0,0,0,85.06,25a2.14,2.14,0,0,0-2-1.35,2,2,0,0,0-2,1.38A14.45,14.45,0,0,0,80.5,30.14Z"/><path class="cls-6" d="M104,40.05V20.37h2.6V40.05Z"/><path class="cls-6" d="M110.91,40.05V25.79h2.17v2a5.12,5.12,0,0,1,4.54-2.35,5.93,5.93,0,0,1,2.37.46,3.78,3.78,0,0,1,1.62,1.22,4.86,4.86,0,0,1,.75,1.78,13.93,13.93,0,0,1,.13,2.35v8.77h-2.42V31.38a6.46,6.46,0,0,0-.28-2.21,2.32,2.32,0,0,0-1-1.17,3.19,3.19,0,0,0-1.68-.44,4,4,0,0,0-2.67,1c-.74.66-1.12,1.9-1.12,3.72v7.79Z"/><path class="cls-6" d="M131.47,37.89l.35,2.13a9.24,9.24,0,0,1-1.82.22,4.15,4.15,0,0,1-2-.42,2.37,2.37,0,0,1-1-1.09,9,9,0,0,1-.29-2.86v-8.2h-1.77V25.79h1.77V22.26l2.4-1.45v5h2.43v1.88H129V36a4.05,4.05,0,0,0,.13,1.33,1,1,0,0,0,.42.47,1.64,1.64,0,0,0,.82.17A8.19,8.19,0,0,0,131.47,37.89Z"/><path class="cls-6" d="M143.59,35.46l2.5.31a6,6,0,0,1-2.19,3.39,7.4,7.4,0,0,1-9-.72A7.51,7.51,0,0,1,133,33a7.88,7.88,0,0,1,1.85-5.58,6.27,6.27,0,0,1,4.81-2,6.1,6.1,0,0,1,4.67,2,7.7,7.7,0,0,1,1.81,5.47c0,.15,0,.36,0,.65H135.53a5.45,5.45,0,0,0,1.33,3.59,3.92,3.92,0,0,0,3,1.25,3.7,3.7,0,0,0,2.26-.69A4.59,4.59,0,0,0,143.59,35.46Zm-7.93-3.91h8a4.86,4.86,0,0,0-.91-2.7,3.7,3.7,0,0,0-3-1.39,3.84,3.84,0,0,0-2.8,1.11A4.4,4.4,0,0,0,135.66,31.55Z"/><path class="cls-6" d="M149.1,40.05V25.79h2.17V28a6,6,0,0,1,1.54-2,2.7,2.7,0,0,1,1.55-.48,4.68,4.68,0,0,1,2.48.78L156,28.49a3.44,3.44,0,0,0-1.77-.52,2.33,2.33,0,0,0-1.42.47,2.61,2.61,0,0,0-.9,1.32,9.37,9.37,0,0,0-.41,2.82v7.47Z"/><path class="cls-6" d="M158.28,40.05V25.79h2.18v2A5.09,5.09,0,0,1,165,25.47a5.93,5.93,0,0,1,2.37.46A3.78,3.78,0,0,1,169,27.15a4.54,4.54,0,0,1,.75,1.78,13.64,13.64,0,0,1,.14,2.35v8.77h-2.42V31.38a6.46,6.46,0,0,0-.28-2.21,2.32,2.32,0,0,0-1-1.17,3.2,3.2,0,0,0-1.69-.44,3.92,3.92,0,0,0-2.66,1c-.75.66-1.12,1.9-1.12,3.72v7.79Z"/><path class="cls-6" d="M182.87,38.29a8.83,8.83,0,0,1-2.58,1.61,7.56,7.56,0,0,1-2.66.47A5.19,5.19,0,0,1,174,39.22a3.78,3.78,0,0,1-1.26-2.93,3.84,3.84,0,0,1,.48-1.91A3.91,3.91,0,0,1,174.48,33a5.78,5.78,0,0,1,1.74-.8,19.2,19.2,0,0,1,2.14-.36,22.08,22.08,0,0,0,4.31-.83c0-.33,0-.54,0-.63a2.64,2.64,0,0,0-.69-2.08,4,4,0,0,0-2.75-.82,4.25,4.25,0,0,0-2.52.6,3.66,3.66,0,0,0-1.2,2.11l-2.36-.32a5.82,5.82,0,0,1,1.06-2.45A4.68,4.68,0,0,1,176.36,26a9.67,9.67,0,0,1,3.24-.5,8.52,8.52,0,0,1,3,.43A3.42,3.42,0,0,1,185,28.62a13.82,13.82,0,0,1,.12,2.23v3.22a35.37,35.37,0,0,0,.15,4.27,5.48,5.48,0,0,0,.61,1.71h-2.52A5.34,5.34,0,0,1,182.87,38.29Zm-.2-5.4a18,18,0,0,1-3.94.92,8.87,8.87,0,0,0-2.11.48,2.11,2.11,0,0,0-1,.78,2.13,2.13,0,0,0,.39,2.76,3.15,3.15,0,0,0,2.14.65,5.1,5.1,0,0,0,2.49-.61,3.82,3.82,0,0,0,1.59-1.67,5.88,5.88,0,0,0,.39-2.42Z"/><path class="cls-6" d="M188.81,40.05V20.37h2.41V40.05Z"/><path class="cls-6" d="M201.64,35.79l2.39-.37a3.39,3.39,0,0,0,1.12,2.2,3.92,3.92,0,0,0,2.57.76,3.78,3.78,0,0,0,2.47-.67,2.05,2.05,0,0,0,.81-1.6,1.46,1.46,0,0,0-.71-1.28,10.24,10.24,0,0,0-2.47-.82,23.92,23.92,0,0,1-3.69-1.16,3.65,3.65,0,0,1-1.65-5,4,4,0,0,1,1.19-1.35,4.82,4.82,0,0,1,1.54-.7,7.31,7.31,0,0,1,2.08-.29,8.33,8.33,0,0,1,3,.48,4,4,0,0,1,1.87,1.31,5.14,5.14,0,0,1,.84,2.21l-2.37.32a2.6,2.6,0,0,0-.93-1.72,3.41,3.41,0,0,0-2.18-.61,4,4,0,0,0-2.38.55,1.59,1.59,0,0,0-.71,1.29,1.31,1.31,0,0,0,.3.84,2.07,2.07,0,0,0,.92.65c.24.08,1,.29,2.14.61a30,30,0,0,1,3.57,1.12,3.61,3.61,0,0,1,1.59,1.27,3.53,3.53,0,0,1,.58,2.07,4,4,0,0,1-.7,2.27,4.52,4.52,0,0,1-2,1.66,7.33,7.33,0,0,1-3,.58,6.7,6.7,0,0,1-4.24-1.15A5.41,5.41,0,0,1,201.64,35.79Z"/><path class="cls-6" d="M226.11,35.46l2.5.31a6,6,0,0,1-2.19,3.39,7.4,7.4,0,0,1-9-.72,7.51,7.51,0,0,1-1.83-5.4,7.88,7.88,0,0,1,1.85-5.58,6.27,6.27,0,0,1,4.81-2,6.1,6.1,0,0,1,4.67,2,7.7,7.7,0,0,1,1.81,5.47c0,.15,0,.36,0,.65H218.05a5.45,5.45,0,0,0,1.33,3.59,3.92,3.92,0,0,0,3,1.25,3.75,3.75,0,0,0,2.27-.69A4.65,4.65,0,0,0,226.11,35.46Zm-7.93-3.91h8a4.86,4.86,0,0,0-.91-2.7,3.7,3.7,0,0,0-3-1.39,3.84,3.84,0,0,0-2.8,1.11A4.4,4.4,0,0,0,218.18,31.55Z"/><path class="cls-6" d="M231.62,40.05V25.79h2.17V28a6,6,0,0,1,1.54-2,2.7,2.7,0,0,1,1.55-.48,4.68,4.68,0,0,1,2.48.78l-.83,2.24a3.44,3.44,0,0,0-1.77-.52,2.33,2.33,0,0,0-1.42.47,2.61,2.61,0,0,0-.9,1.32,9.37,9.37,0,0,0-.41,2.82v7.47Z"/><path class="cls-6" d="M244.76,40.05l-5.42-14.26h2.55L245,34.33c.33.92.63,1.88.91,2.87.22-.75.52-1.65.9-2.71l3.17-8.7h2.48L247,40.05Z"/><path class="cls-6" d="M264.31,35.46l2.49.31a6.08,6.08,0,0,1-2.18,3.39,7.42,7.42,0,0,1-9.05-.72,7.51,7.51,0,0,1-1.83-5.4,7.84,7.84,0,0,1,1.86-5.58,6.23,6.23,0,0,1,4.8-2,6.08,6.08,0,0,1,4.67,2,7.7,7.7,0,0,1,1.82,5.47c0,.15,0,.36,0,.65H256.24a5.45,5.45,0,0,0,1.33,3.59,3.92,3.92,0,0,0,3,1.25,3.75,3.75,0,0,0,2.27-.69A4.73,4.73,0,0,0,264.31,35.46Zm-7.94-3.91h8a4.79,4.79,0,0,0-.91-2.7,3.7,3.7,0,0,0-3-1.39,3.85,3.85,0,0,0-2.8,1.11A4.4,4.4,0,0,0,256.37,31.55Z"/><path class="cls-6" d="M269.81,40.05V25.79H272V28a5.83,5.83,0,0,1,1.53-2,2.7,2.7,0,0,1,1.55-.48,4.71,4.71,0,0,1,2.49.78l-.83,2.24A3.5,3.5,0,0,0,275,28a2.35,2.35,0,0,0-1.42.47,2.61,2.61,0,0,0-.9,1.32,9.38,9.38,0,0,0-.4,2.82v7.47Z"/><path class="cls-6" d="M296.39,35.46l2.5.31a6,6,0,0,1-2.19,3.39,7.4,7.4,0,0,1-9-.72,7.51,7.51,0,0,1-1.83-5.4,7.88,7.88,0,0,1,1.85-5.58,6.25,6.25,0,0,1,4.81-2,6.1,6.1,0,0,1,4.67,2A7.7,7.7,0,0,1,299,32.89c0,.15,0,.36,0,.65H288.32a5.5,5.5,0,0,0,1.33,3.59,3.93,3.93,0,0,0,3,1.25,3.71,3.71,0,0,0,2.27-.69A4.59,4.59,0,0,0,296.39,35.46Zm-7.93-3.91h8a4.86,4.86,0,0,0-.91-2.7,3.71,3.71,0,0,0-3-1.39,3.85,3.85,0,0,0-2.8,1.11A4.43,4.43,0,0,0,288.46,31.55Z"/><path class="cls-6" d="M301.9,40.05V25.79h2.17V28a6,6,0,0,1,1.54-2,2.68,2.68,0,0,1,1.55-.48,4.7,4.7,0,0,1,2.48.78l-.83,2.24A3.44,3.44,0,0,0,307,28a2.38,2.38,0,0,0-1.43.47,2.54,2.54,0,0,0-.89,1.32,9.37,9.37,0,0,0-.41,2.82v7.47Z"/><path class="cls-6" d="M311.05,40.05V25.79h2.18V28a5.83,5.83,0,0,1,1.53-2,2.7,2.7,0,0,1,1.55-.48,4.71,4.71,0,0,1,2.49.78L318,28.49a3.5,3.5,0,0,0-1.78-.52,2.35,2.35,0,0,0-1.42.47,2.61,2.61,0,0,0-.9,1.32,9.38,9.38,0,0,0-.4,2.82v7.47Z"/><path class="cls-6" d="M319.34,32.92q0-4,2.2-5.87A6.65,6.65,0,0,1,326,25.47a6.4,6.4,0,0,1,4.81,1.93,7.32,7.32,0,0,1,1.86,5.32,9.45,9.45,0,0,1-.82,4.33,5.81,5.81,0,0,1-2.41,2.45,7,7,0,0,1-3.44.87,6.4,6.4,0,0,1-4.84-1.92A7.66,7.66,0,0,1,319.34,32.92Zm2.48,0A6.1,6.1,0,0,0,323,37a3.83,3.83,0,0,0,3,1.36A3.77,3.77,0,0,0,329,37a6.18,6.18,0,0,0,1.2-4.17,5.91,5.91,0,0,0-1.2-4,4,4,0,0,0-6,0A6.05,6.05,0,0,0,321.82,32.92Z"/><path class="cls-6" d="M335.5,40.05V25.79h2.17V28a6,6,0,0,1,1.54-2,2.7,2.7,0,0,1,1.55-.48,4.7,4.7,0,0,1,2.48.78l-.83,2.24a3.44,3.44,0,0,0-1.77-.52,2.33,2.33,0,0,0-1.42.47,2.61,2.61,0,0,0-.9,1.32,9.37,9.37,0,0,0-.41,2.82v7.47Z"/></g></g></svg>