<svg xmlns="http://www.w3.org/2000/svg" xmlns:xlink="http://www.w3.org/1999/xlink" width="300" height="400" viewBox="0 0 300 400">
  <defs>
    <clipPath id="clip-bluehost">
      <rect width="300" height="400"/>
    </clipPath>
  </defs>
  <g id="bluehost" clip-path="url(#clip-bluehost)">
    <rect width="300" height="400" fill="#edf4f9"/>
    <rect id="Rectangle_1" data-name="Rectangle 1" width="300" height="95" transform="translate(0 305)" fill="#3575d3"/>
    <g id="Layer_2" data-name="Layer 2" transform="translate(22 332)">
      <g id="Layer_1" data-name="Layer 1">
        <path id="Path_1" data-name="Path 1" d="M21.274,0C25.08.063,28.915.042,32.7,0q.076,5.779,0,11.558H21.246c0-3.855-.069-7.71,0-11.558Z" transform="translate(-6.48)" fill="#fff"/>
        <path id="Path_2" data-name="Path 2" d="M0,.042q5.772-.035,11.53,0v11.5H.014V.042Z" transform="translate(0 -0.008)" fill="#fff"/>
        <path id="Path_3" data-name="Path 3" d="M42.42.042q5.751-.035,11.516,0v11.5H42.427V.042Z" transform="translate(-12.956 -0.008)" fill="#fff"/>
        <path id="Path_4" data-name="Path 4" d="M131.59.05h2.966V41H131.59Z" transform="translate(-40.191 -0.015)" fill="#fff"/>
        <path id="Path_5" data-name="Path 5" d="M225.75.06h5.425V17.577a10.537,10.537,0,0,1,8.543-4.084,8.335,8.335,0,0,1,6.717,3.362,13.7,13.7,0,0,1,2.084,8.411V41h-5.411V24.592a7.64,7.64,0,0,0-1.6-5.182,5.2,5.2,0,0,0-5.508-1.3,11.245,11.245,0,0,0-4.862,3.7c0,6.4.049,12.808,0,19.205h-5.39Z" transform="translate(-68.949 -0.018)" fill="#fff"/>
        <path id="Path_6" data-name="Path 6" d="M342.661,20.447c2.9-2.778,5.723-5.626,8.634-8.4,0,1.882-.049,3.772.035,5.654,2.841-.049,5.675-.042,8.516,0v4.862c-2.862.042-5.723-.056-8.585.049.09,4.688,0,9.377.056,14.065a3.66,3.66,0,0,0,3.167,3.6c2.4.257,4.688-.785,6.724-1.945v5.105c-3.417,1.7-7.64,2.542-11.2.778a7.8,7.8,0,0,1-4.119-6.869c-.049-4.931.042-9.87-.042-14.794h-4.661c-.076-.993.9-1.5,1.486-2.132Z" transform="translate(-104.206 -3.68)" fill="#fff"/>
        <path id="Path_7" data-name="Path 7" d="M318.353,19.588a16.045,16.045,0,0,1,10.384,2.035V27a16.24,16.24,0,0,0-7.967-2.834c-1.306,0-2.945.535-3.306,1.952-.306,1.007.611,1.806,1.278,2.41,3.2,2.57,7.237,4.07,9.919,7.279,1.834,2.084,1.653,5.32.326,7.64a8.55,8.55,0,0,1-6.473,3.945,19.038,19.038,0,0,1-10.863-2.375V39.141c2.584,1.639,5.348,3.278,8.46,3.549,1.695.083,3.82-.6,4.292-2.431.306-1.264-.757-2.237-1.667-2.9-3.112-2.174-6.876-3.542-9.356-6.522a6.862,6.862,0,0,1-.5-7.9,7.854,7.854,0,0,1,5.487-3.348Z" transform="translate(-95.185 -5.933)" fill="#fff"/>
        <path id="Path_8" data-name="Path 8" d="M145.477,20.123h2.966v17.01a7.64,7.64,0,0,0,2.917,6.3,8.337,8.337,0,0,0,6.946,1,9.432,9.432,0,0,0,5.07-3.9c.417-.632,1.09-1.229,1.035-2.049V20.123h2.959c0,8.981-.042,17.962.035,26.95a25.319,25.319,0,0,1-2.994,0V42.641c-1.389,1.952-3.1,3.834-5.466,4.536a11.284,11.284,0,0,1-10-1.7,10.315,10.315,0,0,1-3.473-8.05V20.06Z" transform="translate(-44.43 -6.127)" fill="#fff"/>
        <path id="Path_9" data-name="Path 9" d="M0,21.273c3.855-.049,7.71-.056,11.558,0-.042,3.813,0,7.64,0,11.447-3.848,0-7.7.042-11.551,0,0-3.82.035-7.64,0-11.454Z" transform="translate(0 -6.485)" fill="#fff"/>
        <path id="Path_10" data-name="Path 10" d="M21.23,21.25h11.5v11.5H21.23Z" transform="translate(-6.484 -6.49)" fill="#fff"/>
        <path id="Path_11" data-name="Path 11" d="M42.41,21.263c3.841-.035,7.682,0,11.53,0V32.772c-3.834-.042-7.64,0-11.509-.042.042-3.82,0-7.64,0-11.461Z" transform="translate(-12.953 -6.49)" fill="#fff"/>
        <path id="Path_12" data-name="Path 12" d="M88.227.05h2.959V17.581c.875-.57,1.584-1.341,2.452-1.917,5.043-3.66,13.1-2.723,16.67,2.528a15.615,15.615,0,0,1,2.257,11.5,13.565,13.565,0,0,1-5.313,9.029,16.526,16.526,0,0,1-10.8,2.778,25.651,25.651,0,0,1-8.231-1.966V.05Zm3.7,20.268c-.306.361-.778.695-.736,1.222V37.411a16.579,16.579,0,0,0,10.155.743,11.252,11.252,0,0,0,6.862-5.3,12.961,12.961,0,0,0-.368-12.843,8.793,8.793,0,0,0-8.557-3.973c-2.924.34-5.355,2.223-7.335,4.279Z" transform="translate(-26.945 -0.015)" fill="#fff"/>
        <path id="Path_13" data-name="Path 13" d="M188.965,21.932a12.2,12.2,0,0,1,15.913.861c2.57,2.487,3.515,6.168,3.584,9.648H187.242c-.952,5.557,3.4,11.2,8.939,11.981,4.306.75,8.516-1.195,11.752-3.9v3.4A16.392,16.392,0,0,1,198.9,47.4a13.378,13.378,0,0,1-10.828-3.73,14.913,14.913,0,0,1-4.022-10.821,13.96,13.96,0,0,1,4.9-10.926Zm1.952,2.306a10.578,10.578,0,0,0-3.369,5.793c5.786.083,11.579,0,17.364,0-.528-2.57-1.674-5.237-4.008-6.647a9.03,9.03,0,0,0-9.995.82Z" transform="translate(-56.211 -5.922)" fill="#fff"/>
        <path id="Path_14" data-name="Path 14" d="M278.3,19.436c4.549-.368,9.411,1.09,12.5,4.556,3.952,4.3,4.369,11.113,1.806,16.191a13.2,13.2,0,0,1-8.96,6.828,15.6,15.6,0,0,1-12.864-2.334C264.94,40.384,263.593,31.3,267.7,25.4A14.107,14.107,0,0,1,278.3,19.436Zm-1.278,5.182a8.335,8.335,0,0,0-4.362,3.014,10.317,10.317,0,0,0-.049,11.467c3.334,5,12,4.536,14.843-.695,2.084-3.91,1.577-9.488-2.146-12.245a9.662,9.662,0,0,0-8.286-1.514Z" transform="translate(-81.037 -5.919)" fill="#fff"/>
        <path id="Path_15" data-name="Path 15" d="M21.24,42.43H32.714c.063,3.834,0,7.64.042,11.509-3.834.063-7.64,0-11.509.035V42.444Z" transform="translate(-6.487 -12.959)" fill="#fff"/>
        <path id="Path_16" data-name="Path 16" d="M0,42.44H11.53v11.5H.021V42.44Z" transform="translate(0 -12.962)" fill="#fff"/>
        <path id="Path_17" data-name="Path 17" d="M42.44,42.46H53.928q.014,5.737.014,11.488h-11.5V42.467Z" transform="translate(-12.962 -12.968)" fill="#fff"/>
      </g>
    </g>
    <g id="Group_1" data-name="Group 1" transform="translate(-8 -17)">
      <rect id="Rectangle_2" data-name="Rectangle 2" width="205" height="64" rx="7" transform="translate(56 225)" fill="#06ba00"/>
      <text id="Get_Started" data-name="Get Started" transform="translate(68 269)" fill="#fff" font-size="32" font-family="Poppins-Light, Poppins" font-weight="300"><tspan x="0" y="0">Get Started</tspan></text>
    </g>
    <text id="The_Best" data-name="The Best" transform="translate(150 74)" fill="#3575d3" font-size="48" font-family="SegoeUI-Semilight, Segoe UI" font-weight="300"><tspan x="-87.645" y="0">The Best</tspan></text>
    <text id="only_2.95_mo" data-name="only $2.95 / mo" transform="translate(50 182)" fill="#3575d3" font-size="29" font-family="SegoeUI, Segoe UI"><tspan x="0" y="0">only $2.95 / mo</tspan></text>
    <text id="Web_Hosting" data-name="Web Hosting" transform="translate(150 132)" fill="#3575d3" font-size="44" font-family="SegoeUI, Segoe UI"><tspan x="-126.188" y="0">Web Hosting</tspan></text>
  </g>
</svg>
