<svg xmlns="http://www.w3.org/2000/svg" xmlns:xlink="http://www.w3.org/1999/xlink" width="400" height="500" viewBox="0 0 400 500"><defs><filter id="a" x="75" y="351" width="256" height="77" filterUnits="userSpaceOnUse"><feOffset dy="3" input="SourceAlpha"/><feGaussianBlur stdDeviation="3" result="b"/><feFlood flood-opacity="0.161"/><feComposite operator="in" in2="b"/><feComposite in="SourceGraphic"/></filter><clipPath id="d"><rect width="400" height="500"/></clipPath></defs><g id="c" clip-path="url(#d)"><rect width="400" height="500" fill="#370b62"/><text transform="translate(96 98)" fill="#fff" font-size="44" font-family="Poppins-Regular, Poppins"><tspan x="0" y="0">Up </tspan><tspan y="0" font-size="31">To</tspan><tspan y="0" xml:space="preserve"> 80%</tspan></text><text transform="translate(105 194)" fill="#fff" font-size="57" font-family="Poppins-Regular, Poppins"><tspan x="0" y="0">OFF on</tspan></text><g transform="translate(-58 -9.002)"><rect width="295" height="78" rx="10" transform="translate(111 356.002)" fill="#06ba00"/><g transform="matrix(1, 0, 0, 1, 58, 9)" filter="url(#a)"><text transform="translate(84 401)" fill="#fff" font-size="42" font-family="Poppins-Light, Poppins" font-weight="300"><tspan x="0" y="0">Get Started</tspan></text></g></g><g transform="translate(-8 -19)"><path d="M7,8.287l13.977,7.526V29.79H41.406l12.9,7.526H7ZM59.684,35.166V15.813L44.632,8.287V26.565Zm0,35.48L45.707,63.12V49.143H25.279l-12.9-7.526H59.684ZM7,43.767V63.12l15.052,7.526V52.368Z" transform="translate(53.998 250.78)" fill="#fff" fill-rule="evenodd"/><text transform="translate(139 303)" fill="#fff" font-size="44" font-family="Poppins-SemiBold, Poppins" font-weight="600"><tspan x="0" y="0">Hostinger</tspan></text></g></g></svg>